# xmcd
#
# Track frame offsets: 
#        150
#        32339
#        65125
#        98185
#        122885
#
# Disc length: 1917 seconds
#
# Revision: 0
# Processed by: cddbd v1.5.2PL0 Copyright (c) Steve Scherf et al.
# Submitted via: ExactAudioCopy v0.99pb5
#
DISCID=3f077b05
DTITLE=True Worshippers - Glory To Glory
DYEAR=2010
DGENRE=Contemporary Christian
TTITLE0=You Are My Father
TTITLE1=Be Glorified
TTITLE2=Kau Rajaku
TTITLE3='Kan Kami Angkat
TTITLE4=Bersorak-Sorai
EXTD=
EXTT0=
EXTT1=
EXTT2=
EXTT3=
EXTT4=
PLAYORDER=
